<svg width="577" height="206" viewBox="0 0 577 206" fill="none" xmlns="http://www.w3.org/2000/svg">
<path d="M0.374866 205.5V164.346H37.7873V45.2023H3.25274V4.04869H84.9844V164.346H118.656V205.5H0.374866ZM150.402 205.5L195.873 136.719C193.378 137.102 190.98 137.39 188.678 137.582C186.376 137.582 183.977 137.486 181.483 137.294C168.437 136.527 157.021 133.169 147.236 127.222C137.452 121.082 129.873 113.12 124.501 103.335C119.129 93.3588 116.443 82.231 116.443 69.9521C116.443 57.0975 119.513 45.4901 125.652 35.1298C131.984 24.5775 141.001 16.2317 152.704 10.0922C164.6 3.76091 178.701 0.595249 195.009 0.595249C211.509 0.595249 225.611 3.66498 237.314 9.80445C249.017 15.9439 258.035 24.2898 264.366 34.842C270.697 45.3942 273.863 57.0975 273.863 69.9521C273.863 78.3938 272.712 86.6437 270.41 94.7018C268.299 102.76 265.229 110.722 261.2 118.588C257.363 126.262 252.854 134.033 247.674 141.899L205.082 205.5H150.402ZM195.009 99.0186C202.108 99.0186 208.056 97.7715 212.852 95.2774C217.648 92.5913 221.198 89.042 223.5 84.6292C225.994 80.2165 227.241 75.5159 227.241 70.5276C227.241 65.1556 225.994 60.3591 223.5 56.1382C221.198 51.7255 217.648 48.272 212.852 45.7779C208.056 43.0919 202.108 41.7489 195.009 41.7489C188.102 41.7489 182.251 43.0919 177.454 45.7779C172.658 48.272 169.012 51.7255 166.518 56.1382C164.216 60.3591 163.065 65.1556 163.065 70.5276C163.065 75.5159 164.216 80.2165 166.518 84.6292C169.012 89.042 172.658 92.5913 177.454 95.2774C182.251 97.7715 188.102 99.0186 195.009 99.0186ZM326.501 205.5C318.251 205.5 310.961 203.773 304.629 200.32C298.298 196.675 293.406 191.878 289.952 185.93C286.499 179.791 284.772 173.076 284.772 165.785C284.772 159.262 286.403 152.931 289.664 146.791C293.118 140.652 297.626 135.568 303.19 131.539L363.626 88.3705C367.463 85.6844 370.341 82.5188 372.259 78.8735C374.37 75.0363 375.425 71.1032 375.425 67.0742C375.425 62.4696 374.37 58.6324 372.259 55.5627C370.341 52.3011 367.559 49.8069 363.914 48.0802C360.46 46.1616 356.239 45.2023 351.251 45.2023H294.557V4.04869H355.855C369.094 4.04869 380.605 6.92657 390.39 12.6823C400.367 18.2462 408.041 25.8246 413.413 35.4175C418.977 44.8186 421.759 55.3708 421.759 67.0742C421.759 78.5857 419.361 88.8501 414.564 97.8674C409.96 106.693 402.381 114.559 391.829 121.466L337.725 157.727C337.341 157.919 336.861 158.399 336.286 159.166C335.902 159.742 335.71 160.413 335.71 161.181C335.71 162.332 335.998 163.195 336.574 163.771C337.341 164.155 338.396 164.346 339.739 164.346H426.651V205.5H326.501ZM435.676 205.5V164.346H504.457C509.254 164.346 513.571 163.195 517.408 160.893C521.437 158.591 524.506 155.521 526.617 151.684C528.919 147.847 530.07 143.626 530.07 139.021C530.07 134.416 528.919 130.292 526.617 126.646C524.506 122.809 521.437 119.739 517.408 117.437C513.571 115.135 509.254 113.984 504.457 113.984H442.295V4.04869H564.029V45.2023H487.478V74.5567H509.925C522.588 74.5567 533.908 77.4345 543.884 83.1903C554.053 88.946 562.015 96.8122 567.771 106.789C573.718 116.574 576.692 127.51 576.692 139.597C576.692 151.492 573.718 162.524 567.771 172.692C562.015 182.669 554.053 190.631 543.884 196.579C533.908 202.526 522.588 205.5 509.925 205.5H435.676Z" fill="black"/>
</svg>
