<svg width="71" height="70" viewBox="0 0 71 70" fill="none" xmlns="http://www.w3.org/2000/svg">
<path d="M68.6908 17.1354V49.6896C68.6908 51.5015 67.2196 52.9729 65.4075 52.9729H43.2049C43.2049 57.174 39.7985 60.5757 35.5927 60.5757C31.3964 60.5757 27.9899 57.1741 27.9899 52.9729H5.78721C3.97514 52.9729 2.50391 51.5015 2.50391 49.6896V17.1354C2.50391 16.2932 2.82082 15.5315 3.33652 14.9496C3.9374 14.2778 4.81254 13.8521 5.78721 13.8521H65.4075C66.3822 13.8521 67.2573 14.2778 67.8582 14.9496C68.3739 15.5315 68.6908 16.2932 68.6908 17.1354Z" fill="#5FAFFF"/>
<path d="M67.8576 14.9496V46.3068C67.8576 48.8094 65.8234 50.8438 63.3206 50.8438H40.0723C39.1735 50.8438 38.4401 51.5771 38.4401 52.4855C38.4401 54.0515 37.1675 55.3241 35.6016 55.3241C34.0356 55.3241 32.763 54.0513 32.763 52.4855C32.763 51.5771 32.025 50.8438 31.1213 50.8438H7.87295C5.37018 50.8438 3.33594 48.8094 3.33594 46.3068V14.9496C3.93682 14.2778 4.81195 13.8521 5.78662 13.8521H65.4069C66.3816 13.8521 67.2567 14.2778 67.8576 14.9496Z" fill="#3385FF"/>
<path d="M65.021 11.1244V46.3054C65.021 47.2403 64.2647 48.0049 63.3214 48.0049H40.0714C37.5986 48.0049 35.6016 50.0104 35.6016 52.4833V13.9032C35.6016 11.4303 37.5986 9.4248 40.0714 9.4248H63.3214C64.2647 9.4248 65.021 10.1896 65.021 11.1244Z" fill="white"/>
<path d="M65.0191 11.1223V46.3069C65.0191 47.2389 64.2621 48.0053 63.3206 48.0053H60.4157V15.7256C60.4157 14.7936 59.6635 14.0271 58.7173 14.0271H35.6016V13.9041C35.6016 11.4298 37.5981 9.42383 40.0724 9.42383H63.3206C64.2621 9.42383 65.0191 10.1903 65.0191 11.1223Z" fill="#CAECFF"/>
<path d="M35.6038 13.9034V52.4835C35.6038 50.0107 33.5983 48.0052 31.1254 48.0052H7.87533C6.93211 48.0052 6.17578 47.2405 6.17578 46.3056V11.1246C6.17578 10.1899 6.93211 9.42505 7.87533 9.42505H31.1254C33.5983 9.42505 35.6038 11.4306 35.6038 13.9034Z" fill="white"/>
<path d="M35.6028 13.9041V52.4856C35.6028 50.1106 33.7577 48.1709 31.4254 48.0147V18.0815C31.4254 15.6072 29.4195 13.6013 26.9451 13.6013H6.17578V11.1223C6.17578 10.1903 6.93279 9.42383 7.87424 9.42383H31.1224C33.5968 9.42383 35.6028 11.4298 35.6028 13.9041Z" fill="#CAECFF"/>
<path d="M25.0384 48.0051V59.0341L21.6188 55.5382L18.1992 59.0341V48.0051H25.0384Z" fill="#CAECFF"/>
<path d="M25.0368 48.0051V59.0341L21.6172 55.5375V48.0051H25.0368Z" fill="#A2E5F4"/>
<path d="M65.5731 13.3087V11.1244C65.5731 9.88296 64.5635 8.87329 63.3221 8.87329H40.0722C38.1229 8.87329 36.4333 9.99384 35.6015 11.6235C34.7685 9.99384 33.0763 8.87329 31.124 8.87329H7.87373C6.63232 8.87329 5.62266 9.88296 5.62266 11.1244V13.3087C3.58514 13.3957 1.95312 15.0759 1.95312 17.1345V49.6903C1.95312 51.8043 3.67291 53.5244 5.78686 53.5244H17.6462V59.0339C17.6462 59.258 17.782 59.46 17.9897 59.5445C18.197 59.6294 18.4353 59.5798 18.5921 59.4196L21.6175 56.3266L24.643 59.4196C24.7489 59.5277 24.8917 59.5854 25.0373 59.5854C25.1075 59.5854 25.1782 59.572 25.2454 59.5445C25.453 59.46 25.5888 59.258 25.5888 59.0339V53.5244H27.4576C27.742 57.7645 31.2823 61.1269 35.5935 61.1269C39.9094 61.1269 43.4536 57.7646 43.7385 53.5244H65.4091C67.5232 53.5244 69.2432 51.8042 69.2432 49.6903V17.1345C69.2431 15.0759 67.6107 13.3957 65.5731 13.3087ZM40.0722 9.97634H63.3221C63.9551 9.97634 64.47 10.4912 64.47 11.1242V46.3054C64.47 46.9384 63.9551 47.4533 63.3221 47.4533H40.0722C38.489 47.4533 37.0748 48.191 36.1536 49.3411V13.9032C36.1536 11.738 37.9117 9.97634 40.0722 9.97634ZM6.7257 11.1244C6.7257 10.4914 7.24059 9.97647 7.87359 9.97647H31.124C33.2888 9.97647 35.0504 11.738 35.0504 13.9033V49.3435C34.1278 48.1921 32.7106 47.4535 31.124 47.4535H7.87373C7.24072 47.4535 6.72584 46.9387 6.72584 46.3056L6.7257 11.1244ZM5.78686 52.4214C4.28131 52.4214 3.05617 51.1964 3.05617 49.6903V17.1345C3.05617 15.6839 4.19367 14.4974 5.62266 14.4118V46.3055C5.62266 47.5469 6.63232 48.5566 7.87373 48.5566H17.6462V52.4214H5.78686ZM24.4855 57.6815L22.0117 55.1524C21.9078 55.0465 21.7656 54.9866 21.6174 54.9866C21.4692 54.9866 21.327 55.0465 21.2231 55.1524L18.7493 57.6815V48.557H24.4855V57.6815ZM68.14 49.6903C68.14 51.1962 66.915 52.4214 65.4089 52.4214H43.2053C42.9007 52.4214 42.6537 52.6683 42.6537 52.9729C42.6537 56.8609 39.4867 60.0237 35.5933 60.0237C31.7053 60.0237 28.5421 56.8609 28.5421 52.9729C28.5421 52.6683 28.2951 52.4214 27.9905 52.4214H25.5887V48.5566H31.1241C33.2889 48.5566 35.0505 50.3181 35.0505 52.4834C35.0505 52.788 35.2975 53.0349 35.6021 53.0349C35.9067 53.0349 36.1536 52.788 36.1536 52.4834C36.1536 50.3181 37.9117 48.5566 40.0722 48.5566H63.3221C64.5635 48.5566 65.5731 47.5469 65.5731 46.3055V14.4118C67.0025 14.4974 68.14 15.6839 68.14 17.1345V49.6903Z" fill="#000B20"/>
<path d="M40.3679 40.5054H45.4298C45.7344 40.5054 45.9813 40.2585 45.9813 39.9539C45.9813 39.6493 45.7344 39.4023 45.4298 39.4023H40.3679C40.0633 39.4023 39.8164 39.6493 39.8164 39.9539C39.8163 40.2585 40.0632 40.5054 40.3679 40.5054Z" fill="#000B20"/>
<path d="M60.254 39.376H48.6687C48.3641 39.376 48.1172 39.6229 48.1172 39.9275C48.1172 40.2321 48.3641 40.479 48.6687 40.479H60.254C60.5586 40.479 60.8055 40.2321 60.8055 39.9275C60.8055 39.6229 60.5586 39.376 60.254 39.376Z" fill="#000B20"/>
<path d="M40.3679 32.4949H45.4298C45.7344 32.4949 45.9813 32.248 45.9813 31.9434C45.9813 31.6388 45.7344 31.3918 45.4298 31.3918H40.3679C40.0633 31.3918 39.8164 31.6388 39.8164 31.9434C39.8163 32.248 40.0632 32.4949 40.3679 32.4949Z" fill="#000B20"/>
<path d="M60.254 31.3657H48.6687C48.3641 31.3657 48.1172 31.6126 48.1172 31.9172C48.1172 32.2219 48.3641 32.4688 48.6687 32.4688H60.254C60.5586 32.4688 60.8055 32.2219 60.8055 31.9172C60.8055 31.6126 60.5586 31.3657 60.254 31.3657Z" fill="#000B20"/>
<path d="M40.3679 24.4841H45.4298C45.7344 24.4841 45.9813 24.2372 45.9813 23.9326C45.9813 23.628 45.7344 23.3811 45.4298 23.3811H40.3679C40.0633 23.3811 39.8164 23.628 39.8164 23.9326C39.8163 24.2372 40.0632 24.4841 40.3679 24.4841Z" fill="#000B20"/>
<path d="M60.254 23.355H48.6687C48.3641 23.355 48.1172 23.6019 48.1172 23.9065C48.1172 24.2111 48.3641 24.458 48.6687 24.458H60.254C60.5586 24.458 60.8055 24.2111 60.8055 23.9065C60.8055 23.6019 60.5586 23.355 60.254 23.355Z" fill="#000B20"/>
<path d="M40.3679 36.4868H49.4484C49.753 36.4868 49.9999 36.2399 49.9999 35.9353C49.9999 35.6307 49.753 35.3838 49.4484 35.3838H40.3679C40.0633 35.3838 39.8164 35.6307 39.8164 35.9353C39.8163 36.2399 40.0632 36.4868 40.3679 36.4868Z" fill="#000B20"/>
<path d="M60.2504 35.3838H52.4226C52.118 35.3838 51.8711 35.6307 51.8711 35.9353C51.8711 36.2399 52.118 36.4868 52.4226 36.4868H60.2504C60.5551 36.4868 60.802 36.2399 60.802 35.9353C60.802 35.6307 60.5551 35.3838 60.2504 35.3838Z" fill="#000B20"/>
<path d="M40.3679 28.4766H49.4484C49.753 28.4766 49.9999 28.2297 49.9999 27.9251C49.9999 27.6204 49.753 27.3735 49.4484 27.3735H40.3679C40.0633 27.3735 39.8164 27.6204 39.8164 27.9251C39.8163 28.2297 40.0632 28.4766 40.3679 28.4766Z" fill="#000B20"/>
<path d="M60.2504 27.3733H52.4226C52.118 27.3733 51.8711 27.6202 51.8711 27.9248C51.8711 28.2294 52.118 28.4763 52.4226 28.4763H60.2504C60.5551 28.4763 60.802 28.2294 60.802 27.9248C60.802 27.6202 60.5551 27.3733 60.2504 27.3733Z" fill="#000B20"/>
<path d="M40.3679 16.4737H45.4298C45.7344 16.4737 45.9813 16.2267 45.9813 15.9221C45.9813 15.6175 45.7344 15.3706 45.4298 15.3706H40.3679C40.0633 15.3706 39.8164 15.6175 39.8164 15.9221C39.8164 16.2267 40.0632 16.4737 40.3679 16.4737Z" fill="#000B20"/>
<path d="M48.6687 16.4478H60.254C60.5586 16.4478 60.8055 16.2009 60.8055 15.8962C60.8055 15.5916 60.5586 15.3447 60.254 15.3447H48.6687C48.3641 15.3447 48.1172 15.5916 48.1172 15.8962C48.1172 16.2009 48.3641 16.4478 48.6687 16.4478Z" fill="#000B20"/>
<path d="M40.3679 20.4658H49.4484C49.753 20.4658 49.9999 20.2189 49.9999 19.9143C49.9999 19.6097 49.753 19.3628 49.4484 19.3628H40.3679C40.0633 19.3628 39.8164 19.6097 39.8164 19.9143C39.8163 20.2189 40.0632 20.4658 40.3679 20.4658Z" fill="#000B20"/>
<path d="M60.2504 19.3628H52.4226C52.118 19.3628 51.8711 19.6097 51.8711 19.9143C51.8711 20.2189 52.118 20.4658 52.4226 20.4658H60.2504C60.5551 20.4658 60.802 20.2189 60.802 19.9143C60.802 19.6097 60.5551 19.3628 60.2504 19.3628Z" fill="#000B20"/>
<path d="M10.9461 40.5054H16.0079C16.3125 40.5054 16.5595 40.2585 16.5595 39.9539C16.5595 39.6493 16.3125 39.4023 16.0079 39.4023H10.9461C10.6414 39.4023 10.3945 39.6493 10.3945 39.9539C10.3945 40.2585 10.6414 40.5054 10.9461 40.5054Z" fill="#000B20"/>
<path d="M30.8321 39.376H19.2468C18.9422 39.376 18.6953 39.6229 18.6953 39.9275C18.6953 40.2321 18.9422 40.479 19.2468 40.479H30.8321C31.1367 40.479 31.3836 40.2321 31.3836 39.9275C31.3836 39.6229 31.1367 39.376 30.8321 39.376Z" fill="#000B20"/>
<path d="M10.9461 32.4949H16.0079C16.3125 32.4949 16.5595 32.248 16.5595 31.9434C16.5595 31.6388 16.3125 31.3918 16.0079 31.3918H10.9461C10.6414 31.3918 10.3945 31.6388 10.3945 31.9434C10.3945 32.248 10.6414 32.4949 10.9461 32.4949Z" fill="#000B20"/>
<path d="M30.8321 31.3657H19.2468C18.9422 31.3657 18.6953 31.6126 18.6953 31.9172C18.6953 32.2219 18.9422 32.4688 19.2468 32.4688H30.8321C31.1367 32.4688 31.3836 32.2219 31.3836 31.9172C31.3836 31.6126 31.1367 31.3657 30.8321 31.3657Z" fill="#000B20"/>
<path d="M10.9461 24.4841H16.0079C16.3125 24.4841 16.5595 24.2372 16.5595 23.9326C16.5595 23.628 16.3125 23.3811 16.0079 23.3811H10.9461C10.6414 23.3811 10.3945 23.628 10.3945 23.9326C10.3945 24.2372 10.6414 24.4841 10.9461 24.4841Z" fill="#000B20"/>
<path d="M30.8321 23.355H19.2468C18.9422 23.355 18.6953 23.6019 18.6953 23.9065C18.6953 24.2111 18.9422 24.458 19.2468 24.458H30.8321C31.1367 24.458 31.3836 24.2111 31.3836 23.9065C31.3836 23.6019 31.1367 23.355 30.8321 23.355Z" fill="#000B20"/>
<path d="M10.9461 36.4868H20.0261C20.3307 36.4868 20.5776 36.2399 20.5776 35.9353C20.5776 35.6307 20.3307 35.3838 20.0261 35.3838H10.9461C10.6414 35.3838 10.3945 35.6307 10.3945 35.9353C10.3945 36.2399 10.6414 36.4868 10.9461 36.4868Z" fill="#000B20"/>
<path d="M30.8286 35.3838H23.0007C22.6961 35.3838 22.4492 35.6307 22.4492 35.9353C22.4492 36.2399 22.6961 36.4868 23.0007 36.4868H30.8286C31.1332 36.4868 31.3801 36.2399 31.3801 35.9353C31.3801 35.6307 31.1332 35.3838 30.8286 35.3838Z" fill="#000B20"/>
<path d="M10.9461 28.4763H20.0261C20.3307 28.4763 20.5776 28.2294 20.5776 27.9248C20.5776 27.6202 20.3307 27.3733 20.0261 27.3733H10.9461C10.6414 27.3733 10.3945 27.6202 10.3945 27.9248C10.3945 28.2294 10.6414 28.4763 10.9461 28.4763Z" fill="#000B20"/>
<path d="M30.8286 27.3733H23.0007C22.6961 27.3733 22.4492 27.6202 22.4492 27.9248C22.4492 28.2294 22.6961 28.4763 23.0007 28.4763H30.8286C31.1332 28.4763 31.3801 28.2294 31.3801 27.9248C31.3801 27.6202 31.1332 27.3733 30.8286 27.3733Z" fill="#000B20"/>
<path d="M10.9461 16.4737H16.0079C16.3125 16.4737 16.5595 16.2267 16.5595 15.9221C16.5595 15.6175 16.3125 15.3706 16.0079 15.3706H10.9461C10.6414 15.3706 10.3945 15.6175 10.3945 15.9221C10.3945 16.2267 10.6414 16.4737 10.9461 16.4737Z" fill="#000B20"/>
<path d="M19.2468 16.4478H30.8321C31.1367 16.4478 31.3836 16.2009 31.3836 15.8962C31.3836 15.5916 31.1367 15.3447 30.8321 15.3447H19.2468C18.9422 15.3447 18.6953 15.5916 18.6953 15.8962C18.6953 16.2009 18.9422 16.4478 19.2468 16.4478Z" fill="#000B20"/>
<path d="M10.9461 20.4658H20.0261C20.3307 20.4658 20.5776 20.2189 20.5776 19.9143C20.5776 19.6097 20.3307 19.3628 20.0261 19.3628H10.9461C10.6414 19.3628 10.3945 19.6097 10.3945 19.9143C10.3945 20.2189 10.6414 20.4658 10.9461 20.4658Z" fill="#000B20"/>
<path d="M30.8286 19.3628H23.0007C22.6961 19.3628 22.4492 19.6097 22.4492 19.9143C22.4492 20.2189 22.6961 20.4658 23.0007 20.4658H30.8286C31.1332 20.4658 31.3801 20.2189 31.3801 19.9143C31.3801 19.6097 31.1332 19.3628 30.8286 19.3628Z" fill="#000B20"/>
</svg>
