<svg width="71" height="70" viewBox="0 0 71 70" fill="none" xmlns="http://www.w3.org/2000/svg">
<path d="M49.119 20.2878V52.5278C49.119 54.1531 47.8948 55.47 46.384 55.47H12.6921C11.1812 55.47 9.95703 54.1531 9.95703 52.5278V20.2878H49.119Z" fill="#CAECFF"/>
<path d="M49.119 20.2878V32.7113C47.2374 39.54 44.4637 45.1536 42.0609 49.1756C41.1725 50.6692 39.6511 51.5572 37.9968 51.5572H9.95703V20.2878H49.119Z" fill="#A2E5F4"/>
<path d="M49.1177 20.2891C48.4209 30.8329 44.7659 40.4726 40.2959 47.9549C39.7935 48.796 38.9253 49.3005 37.9959 49.3005H5.04765C2.96323 49.3005 1.63651 46.8885 2.65452 44.9318C6.80312 36.9577 10.1574 28.7506 9.95489 20.2891H49.1177Z" fill="white"/>
<path d="M49.119 20.288C48.423 30.8339 44.7681 40.4731 40.2982 47.9566C39.7945 48.7956 38.9272 49.2997 37.9968 49.2997H5.0499C2.96535 49.2997 1.63631 46.888 2.65404 44.9315C2.76943 44.7058 2.88838 44.4838 3.00035 44.2581H33.3101C34.2369 44.2581 35.1078 43.754 35.6079 42.9111C39.3537 36.6391 42.5296 28.8511 43.8691 20.2878H49.119V20.288Z" fill="#CAECFF"/>
<path d="M52.771 17.6842V10.8722C52.771 9.43354 51.6868 8.26733 50.3495 8.26733H8.72625C7.38887 8.26733 6.30469 9.43354 6.30469 10.8722V17.6842C6.30469 19.1229 7.38887 20.2891 8.72625 20.2891H50.3495C51.6868 20.2891 52.771 19.1229 52.771 17.6842Z" fill="#5FAFFF"/>
<path d="M52.7696 10.8706V17.6843C52.7696 19.1215 51.6855 20.2878 50.3493 20.2878H49.7862V14.0837C49.7862 12.6426 48.702 11.4763 47.3624 11.4763H6.30469V10.8706C6.30469 9.4333 7.38887 8.26709 8.72502 8.26709H50.3493C51.6853 8.26709 52.7696 9.43344 52.7696 10.8706Z" fill="#3385FF"/>
<path d="M68.4915 54.8634C68.4915 61.9964 62.711 67.7769 55.5817 67.7769C48.4523 67.7769 42.6719 61.9964 42.6719 54.8634C42.6719 47.7341 48.4525 41.9536 55.5817 41.9536C62.7109 41.9536 68.4915 47.7342 68.4915 54.8634Z" fill="#5FAFFF"/>
<path d="M68.4919 54.8634C68.4919 59.4915 66.0611 63.549 62.4038 65.8242C63.6415 63.8454 64.3565 61.5073 64.3565 58.9987C64.3565 51.8694 58.5761 46.0889 51.4467 46.0889C48.9419 46.0889 46.6037 46.8041 44.625 48.0417C46.9001 44.3845 50.9577 41.9536 55.5821 41.9536C62.7114 41.9536 68.4919 47.7342 68.4919 54.8634Z" fill="#3385FF"/>
<path d="M55.5814 41.4018C53.4615 41.4018 51.4555 41.8959 49.6698 42.7727V20.8408H50.3484C51.988 20.8408 53.3217 19.4248 53.3217 17.6844V10.8722C53.3217 9.1318 51.988 7.7158 50.3484 7.7158H46.9137C46.7786 4.23439 45.3764 1.67188 43.5431 1.67188C41.7115 1.67188 40.3106 4.23439 40.1756 7.7158H37.5751C37.44 4.23439 36.0378 1.67188 34.2042 1.67188C32.3729 1.67188 30.972 4.23439 30.837 7.7158H28.2365C28.1014 4.23439 26.6992 1.67188 24.8656 1.67188C23.0344 1.67188 21.6334 4.23439 21.4985 7.7158H18.8979C18.7629 4.23439 17.3607 1.67188 15.527 1.67188C13.6958 1.67188 12.2948 4.23439 12.1599 7.7158H8.72524C7.08571 7.7158 5.75202 9.1318 5.75202 10.8722V17.6844C5.75202 19.4248 7.08571 20.8408 8.72524 20.8408H9.402C9.45204 29.459 5.78811 37.7149 2.16602 44.6772C0.960162 46.9947 2.54473 49.8518 5.04833 49.8518H9.40391V52.5277C9.40391 54.4547 10.8788 56.0228 12.6917 56.0228H42.1732C42.7634 62.906 48.5495 68.3281 55.5815 68.3281C63.0042 68.3281 69.043 62.2878 69.043 54.8633C69.0428 47.4405 63.0042 41.4018 55.5814 41.4018ZM43.5433 2.77506C44.5598 2.77506 45.6843 4.77785 45.8113 7.7158H41.2783C41.405 4.77785 42.5283 2.77506 43.5433 2.77506ZM34.2043 2.77506C35.2208 2.77506 36.3457 4.77785 36.4727 7.7158H31.9397C32.0664 4.77785 33.1893 2.77506 34.2043 2.77506ZM24.8657 2.77506C25.8822 2.77506 27.0071 4.77785 27.1341 7.7158H22.6011C22.7278 4.77785 23.8507 2.77506 24.8657 2.77506ZM15.5271 2.77506C16.5436 2.77506 17.6686 4.77785 17.7956 7.7158H13.2625C13.3893 4.77785 14.5121 2.77506 15.5271 2.77506ZM6.85506 17.6844V10.8722C6.85506 9.7402 7.69397 8.81898 8.72524 8.81898H12.16C12.295 12.3004 13.6959 14.8633 15.5271 14.8633C15.8317 14.8633 16.0787 14.6164 16.0787 14.3118C16.0787 14.0072 15.8317 13.7603 15.5271 13.7603C14.5123 13.7603 13.3893 11.7575 13.2625 8.81912H21.4986C21.6335 12.3005 23.0345 14.8635 24.8657 14.8635C25.1703 14.8635 25.4172 14.6165 25.4172 14.3119C25.4172 14.0073 25.1703 13.7604 24.8657 13.7604C23.8508 13.7604 22.7278 11.7576 22.6011 8.81926H30.8372C30.9721 12.3007 32.3731 14.8636 34.2043 14.8636C34.5089 14.8636 34.7558 14.6167 34.7558 14.3121C34.7558 14.0075 34.5089 13.7605 34.2043 13.7605C33.1894 13.7605 32.0664 11.7578 31.9397 8.8194H40.1758C40.3107 12.3008 41.7117 14.8637 43.5433 14.8637C43.8479 14.8637 44.0948 14.6168 44.0948 14.3122C44.0948 14.0076 43.8479 13.7607 43.5433 13.7607C42.5284 13.7607 41.4051 11.7579 41.2783 8.81953H50.3486C51.3797 8.81953 52.2188 9.74074 52.2188 10.8728V17.6849C52.2188 18.817 51.3799 19.7382 50.3486 19.7382C45.6386 19.7382 13.6392 19.7382 8.72538 19.7382C7.69411 19.7376 6.85506 18.8164 6.85506 17.6844ZM3.14465 45.1864C6.8284 38.1046 10.5648 29.6968 10.5153 20.8408H48.5259C47.6377 32.4477 43.3206 41.8181 39.8229 47.6724C39.4204 48.3463 38.7375 48.7488 37.9963 48.7488H5.04833C3.41249 48.7488 2.30028 46.8082 3.14465 45.1864ZM12.6917 54.9197C11.487 54.9197 10.5071 53.8468 10.5071 52.5278V49.8518H37.9962C39.1294 49.8518 40.1662 49.2486 40.7699 48.2377C43.5481 43.5877 46.8284 36.7488 48.5667 28.3509V43.3789C44.7032 45.7474 42.12 50.0089 42.12 54.8633C42.12 54.8821 42.1214 54.9009 42.1214 54.9197H12.6917ZM55.5814 67.2251C48.767 67.2251 43.2231 61.6798 43.2231 54.8633C43.2231 48.0489 48.7672 42.505 55.5814 42.505C62.3956 42.505 67.9396 48.0491 67.9396 54.8633C67.9398 61.6798 62.3957 67.2251 55.5814 67.2251Z" fill="#000B20"/>
<path d="M56.1343 54.6366V49.9458C56.1343 49.6412 55.8874 49.3943 55.5828 49.3943C55.2782 49.3943 55.0312 49.6412 55.0312 49.9458V54.865C55.0312 55.011 55.0895 55.1515 55.1929 55.2549L57.1039 57.1663C57.2116 57.2741 57.3526 57.3279 57.4938 57.3279C57.6352 57.3279 57.776 57.2741 57.8837 57.1663C58.0992 56.9509 58.0992 56.6018 57.8837 56.3864L56.1343 54.6366Z" fill="#000B20"/>
<path d="M36.0149 26.4015H16.7703C16.4657 26.4015 16.2188 26.6484 16.2188 26.953C16.2188 27.2576 16.4657 27.5045 16.7703 27.5045H36.0149C36.3196 27.5045 36.5665 27.2576 36.5665 26.953C36.5665 26.6484 36.3196 26.4015 36.0149 26.4015Z" fill="#000B20"/>
<path d="M33.554 32.9006H14.3093C14.0047 32.9006 13.7578 33.1475 13.7578 33.4522C13.7578 33.7568 14.0047 34.0037 14.3093 34.0037H33.554C33.8586 34.0037 34.1055 33.7568 34.1055 33.4522C34.1055 33.1475 33.8586 32.9006 33.554 32.9006Z" fill="#000B20"/>
<path d="M31.097 39.3999H11.8523C11.5477 39.3999 11.3008 39.6468 11.3008 39.9514C11.3008 40.256 11.5477 40.5029 11.8523 40.5029H31.097C31.4016 40.5029 31.6485 40.256 31.6485 39.9514C31.6485 39.6468 31.4017 39.3999 31.097 39.3999Z" fill="#000B20"/>
</svg>
