<svg width="71" height="70" viewBox="0 0 71 70" fill="none" xmlns="http://www.w3.org/2000/svg">
<path d="M35.1992 7.03955V11.5038L67.859 24.1917V20.0567L35.1992 7.03955Z" fill="#3385FF"/>
<path d="M35.1988 7.03943V11.5037L2.53906 24.1916V20.0566L35.1988 7.03943Z" fill="#3385FF"/>
<path d="M67.8587 24.192L35.2008 36.8817L2.54297 24.192L35.2008 11.5024L67.8587 24.192Z" fill="#5FAFFF"/>
<path d="M67.8606 24.1934L56.1544 28.7427C56.2118 26.7703 55.1484 24.7758 52.9642 23.9287L34.145 16.6173C32.9756 16.1628 31.6828 16.1628 30.5136 16.6173L11.69 23.9287C10.2956 24.4671 9.36018 25.482 8.8792 26.6556L2.54297 24.1934L35.1996 11.5032L67.8606 24.1934Z" fill="#3385FF"/>
<path d="M53.1071 27.3612V38.6208C53.1071 34.2793 45.0939 30.7624 35.2 30.7624C25.3189 30.7624 17.293 34.2793 17.293 38.6208V27.3612C17.293 23.0326 25.3189 19.5156 35.2 19.5156C45.0939 19.5155 53.1071 23.0326 53.1071 27.3612Z" fill="#CAECFF"/>
<path d="M53.1071 27.3612V38.6208C53.1071 34.2793 45.0939 30.7624 35.2 30.7624C25.3189 30.7624 17.293 34.2793 17.293 38.6208V27.3612C17.293 23.0326 25.3189 19.5156 35.2 19.5156C45.0939 19.5155 53.1071 23.0326 53.1071 27.3612Z" fill="#CAECFF"/>
<path d="M53.1089 38.6223C53.1089 42.9642 45.0827 46.4809 35.1987 46.4809C25.3061 46.4809 17.293 42.9642 17.293 38.6223C17.293 34.2803 25.3192 30.7637 35.1987 30.7637C45.096 30.7637 53.1089 34.2805 53.1089 38.6223Z" fill="#5FAFFF"/>
<path d="M53.1098 38.6223C53.1098 40.4182 51.7376 42.0684 49.4298 43.3921C49.6019 42.9553 49.6945 42.5008 49.6945 42.0375C49.6945 37.6956 41.6814 34.1789 31.7843 34.1789C25.9907 34.1789 20.8326 35.3879 17.5586 37.2677C19.0235 33.57 26.3746 30.7637 35.1996 30.7637C45.0969 30.7637 53.1098 34.2805 53.1098 38.6223Z" fill="#3385FF"/>
<path d="M53.1108 27.3616V38.6221C53.1108 36.7424 51.6106 35.0215 49.1086 33.6714V31.3592C49.1086 27.0306 41.0955 23.5139 31.2029 23.5139C25.6785 23.5139 20.7365 24.6126 17.4492 26.3378C18.5921 22.4902 26.1153 19.5161 35.2005 19.5161C45.0979 19.5163 53.1108 23.0329 53.1108 27.3616Z" fill="#A2E5F4"/>
<path d="M59.8204 31.9102H55.5L56.3024 25.2896H59.018L59.8204 31.9102Z" fill="#CAECFF"/>
<path d="M57.6607 26.9697C58.5887 26.9697 59.341 26.2174 59.341 25.2894C59.341 24.3614 58.5887 23.6091 57.6607 23.6091C56.7328 23.6091 55.9805 24.3614 55.9805 25.2894C55.9805 26.2174 56.7328 26.9697 57.6607 26.9697Z" fill="#CAECFF"/>
<path d="M7.30078 53.6796L11.1089 58.0335C11.1089 58.0335 27.9794 48.9671 35.3633 48.6165C25.5263 48.6192 14.0459 53.2802 8.8833 53.8052C8.3382 53.8606 7.80992 53.8075 7.30078 53.6796Z" fill="#CAECFF"/>
<path d="M59.7448 53.5051L59.7423 53.5138C59.7423 53.5138 45.2127 48.6162 35.3738 48.6162C35.373 48.6162 35.3721 48.6163 35.3711 48.6163C42.7668 48.9657 59.6404 58.0335 59.6404 58.0335L63.7717 53.3103C63.0622 53.6267 62.3021 53.8078 61.5067 53.8078C60.8963 53.8078 60.3076 53.6964 59.7448 53.5051Z" fill="#CAECFF"/>
<path d="M61.5069 36.6875V53.7389C61.5069 53.7389 45.2119 48.5489 35.3678 48.5489C25.5341 48.5489 14.051 53.2136 8.88193 53.7389C5.16277 54.1171 2.10547 49.9252 2.10547 45.208C2.10547 40.5011 5.14172 36.6875 8.88193 36.6875C8.88193 36.6875 25.7232 41.3838 35.3047 41.3838C44.8863 41.3838 61.5069 36.6875 61.5069 36.6875Z" fill="white"/>
<path d="M61.5061 36.6895V39.7297C61.5061 39.7297 44.8843 44.429 35.3049 44.429C25.7254 44.429 8.88303 39.7297 8.88303 39.7297C5.5516 39.7297 2.78059 42.7522 2.2158 46.7366C2.14074 46.238 2.10547 45.7261 2.10547 45.2099C2.10547 40.5017 5.14131 36.6895 8.88303 36.6895C8.88303 36.6895 25.7254 41.3844 35.3049 41.3844C44.8842 41.3844 61.5061 36.6895 61.5061 36.6895Z" fill="#CAECFF"/>
<path d="M68.2921 45.2794C68.2921 49.9817 65.2517 53.8077 61.5029 53.8077C57.7668 53.8077 54.7266 49.9815 54.7266 45.2794C54.7266 40.5643 57.7669 36.751 61.5029 36.751C65.2517 36.751 68.2921 40.5643 68.2921 45.2794Z" fill="#A2E5F4"/>
<path d="M64.8906 45.2251H54.7287C54.7286 45.2434 54.7266 45.2611 54.7266 45.2794C54.7266 48.7183 56.356 51.681 58.6909 53.0289C62.1154 53.0172 64.8906 49.5227 64.8906 45.2251Z" fill="white"/>
<path d="M39.809 41.177V62.9614L35.2596 59.8417L30.7148 62.9614V41.177C32.3519 41.3402 33.9094 41.4462 35.3126 41.4462C36.6938 41.4462 38.2117 41.3402 39.809 41.177Z" fill="#CAECFF"/>
<path d="M39.809 41.177V55.7073C38.472 56.4839 36.9189 56.9296 35.2642 56.9296C33.6095 56.9296 32.0518 56.4839 30.7148 55.7073V41.177C32.3519 41.3402 33.9094 41.4462 35.3126 41.4462C36.6938 41.4462 38.2117 41.3402 39.809 41.177Z" fill="#A2E5F4"/>
<path d="M35.2617 54.2821C38.8234 54.2821 41.7108 51.3947 41.7108 47.833C41.7108 44.2712 38.8234 41.3838 35.2617 41.3838C31.6999 41.3838 28.8125 44.2712 28.8125 47.833C28.8125 51.3947 31.6999 54.2821 35.2617 54.2821Z" fill="#5FAFFF"/>
<path d="M41.7098 47.8311C41.7098 50.6419 39.9095 53.0334 37.4033 53.9159C37.6504 53.232 37.7829 52.4951 37.7829 51.7273C37.7829 48.1665 34.8928 45.2807 31.3363 45.2807C30.5818 45.2807 29.8581 45.4087 29.1875 45.6514C30.0788 43.1627 32.4615 41.3845 35.259 41.3845C38.8154 41.3845 41.7098 44.2702 41.7098 47.8311Z" fill="#3385FF"/>
<path d="M61.5037 36.1995C60.5644 36.1995 59.669 36.4276 58.8431 36.8283C57.5037 37.1746 55.7094 37.6226 53.6596 38.0935V30.3009L55.2119 29.6977L54.9518 31.8437C54.9328 32.0004 54.982 32.1576 55.0868 32.2758C55.1915 32.394 55.3419 32.4615 55.4995 32.4615H59.8203C59.978 32.4615 60.1284 32.3938 60.233 32.2758C60.3377 32.1576 60.3868 32.0002 60.3678 31.8437L59.8875 27.8809L68.0585 24.7059C68.0801 24.6975 68.0973 24.6828 68.1174 24.672C68.1345 24.6628 68.1534 24.6579 68.1697 24.6468C68.1757 24.6427 68.1799 24.637 68.1858 24.6326C68.2017 24.6208 68.2153 24.6071 68.2297 24.5939C68.2525 24.5727 68.2737 24.5507 68.2924 24.5262C68.3047 24.5102 68.3159 24.4942 68.3265 24.4771C68.343 24.4501 68.356 24.4216 68.3678 24.3921C68.3746 24.3747 68.3824 24.3585 68.3875 24.3404C68.3996 24.2972 68.4065 24.2526 68.4078 24.207C68.408 24.2018 68.4101 24.197 68.4101 24.1918C68.4101 24.1908 68.4097 24.1899 68.4097 24.1889V20.0563C68.4097 19.8305 68.2723 19.6276 68.0625 19.544L35.403 6.52692C35.2853 6.49492 35.1707 6.46047 35.002 6.52487C34.9037 6.56246 2.38443 19.5241 2.33453 19.544C2.12467 19.6276 1.98727 19.8306 1.98727 20.0563V24.1915C1.98727 24.3039 2.02473 24.4096 2.08625 24.5C2.08762 24.502 2.08898 24.5041 2.09049 24.5061C2.11947 24.5474 2.15352 24.5845 2.1933 24.6169C2.19645 24.6195 2.19904 24.6223 2.20232 24.6248C2.21121 24.6316 2.21805 24.6404 2.22734 24.6468C2.25264 24.664 2.28121 24.6732 2.30855 24.6859C2.32072 24.6918 2.33057 24.7009 2.34328 24.7059L16.7424 30.3008V38.075C12.3392 37.0726 9.10416 36.1764 9.03088 36.1559C8.98262 36.1425 8.93258 36.1357 8.88268 36.1357C4.84209 36.1357 1.55469 40.2054 1.55469 45.2078C1.55469 48.1567 2.72637 51.0472 4.61199 52.751C5.32949 53.399 6.11207 53.8501 6.93184 54.0959L10.6934 58.3962C10.8007 58.5194 10.9537 58.5848 11.1087 58.5848C11.1975 58.5848 11.2871 58.5634 11.3695 58.519C11.4965 58.4508 21.1037 53.3148 28.8731 50.682C29.1935 51.3972 29.6307 52.047 30.1598 52.6115V62.9596C30.1598 63.1643 30.2731 63.3521 30.4542 63.4476C30.636 63.543 30.8549 63.5302 31.0233 63.4144L35.2591 60.5107L39.495 63.4144C39.5885 63.4786 39.6974 63.5112 39.807 63.5112C39.8949 63.5112 39.9832 63.4901 40.0643 63.4476C40.2453 63.3521 40.3586 63.1643 40.3586 62.9596V52.6167C40.9059 52.034 41.3571 51.3614 41.6807 50.6186C49.4875 53.232 59.2485 58.4504 59.3766 58.5191C59.4589 58.5636 59.5486 58.5849 59.6373 58.5849C59.7925 58.5849 59.9455 58.5197 60.0527 58.3964L64.1102 53.7572C66.8734 52.4529 68.8448 49.1497 68.8448 45.2794C68.8445 40.2728 65.5516 36.1995 61.5037 36.1995ZM58.8381 52.4744C56.6514 51.1351 55.4301 48.4767 55.2984 45.7768H64.3235C64.1064 49.4468 61.7411 52.3682 58.8381 52.4744ZM54.1783 45.2175C54.1783 45.2182 54.1779 45.2187 54.1779 45.2194C54.177 45.2303 54.1757 45.2685 54.1757 45.2796C54.1757 45.552 54.1891 45.8219 54.2088 46.0903C54.3661 48.2846 55.1774 50.2487 56.2848 51.6431C52.4841 50.6085 47.2094 49.3173 42.2204 48.5826C42.2468 48.3361 42.262 48.0864 42.262 47.8329C42.262 45.2432 40.8449 42.9827 38.7487 41.7719C44.6596 41.2651 51.8895 39.6807 56.6257 38.5227C55.138 40.1734 54.1929 42.5582 54.1783 45.2175ZM52.5564 35.6998C50.0037 32.4651 43.2867 30.2106 35.2009 30.2106C27.1151 30.2106 20.3981 32.4651 17.8454 35.6998V27.3612C17.8454 23.4074 25.7934 20.0671 35.2009 20.0671C44.6084 20.0671 52.5564 23.4074 52.5564 27.3612V35.6998ZM57.6595 24.1606C58.2822 24.1606 58.7886 24.6669 58.7886 25.2894C58.7886 25.9119 58.2823 26.4181 57.6595 26.4181C57.0373 26.4181 56.5311 25.9119 56.5311 25.2894C56.5311 24.6669 57.0373 24.1606 57.6595 24.1606ZM56.1217 31.3585L56.6195 27.252C56.9315 27.4182 57.2821 27.5213 57.6597 27.5213C58.0374 27.5213 58.388 27.4181 58.7002 27.2518L59.198 31.3585H56.1217ZM59.6854 26.2135C59.8149 25.931 59.8916 25.6198 59.8916 25.2895C59.8916 24.2503 59.1744 23.3821 58.2111 23.135V21.0358L66.3357 24.1921L59.7505 26.7509L59.6854 26.2135ZM56.9944 19.3788L35.7502 11.1241V7.85281L54.9058 15.4877C55.9704 16.5153 56.7221 17.8638 56.9944 19.3788ZM67.3067 23.3857L58.1665 19.8342C58.04 18.5521 57.6199 17.3571 56.9751 16.3126L67.3068 20.4305V23.3857H67.3067ZM3.09018 20.4305L34.647 7.85281V11.1257C-7.56445 27.525 5.76344 22.3472 3.09018 23.3857V20.4305ZM4.0658 24.1919C4.37725 24.0709 32.597 13.1064 35.1987 12.0955L57.1068 20.6066C57.1069 20.6207 57.108 20.6345 57.108 20.6486V23.1348C56.1448 23.3821 55.4279 24.2502 55.4279 25.2894C55.4279 25.6198 55.5046 25.931 55.6341 26.2135L55.3623 28.4558L53.6594 29.1175V27.3612C53.6594 22.6525 45.5515 18.9639 35.2008 18.9639C24.8501 18.9639 16.7421 22.6525 16.7421 27.3612V29.1175L4.0658 24.1919ZM35.2008 31.3137C44.3903 31.3137 52.1829 34.5071 52.5392 38.3468C47.0926 39.5627 40.2282 40.8324 35.3049 40.8324C30.3578 40.8324 23.3842 39.5489 17.8635 38.3267C18.2453 34.4959 26.0273 31.3137 35.2008 31.3137ZM2.6576 45.2081C2.6576 40.8451 5.4107 37.2897 8.80967 37.2398C9.90437 37.5406 22.5005 40.9608 31.7847 41.7652C29.6827 42.9745 28.2608 45.2387 28.2608 47.8329C28.2608 48.1116 28.2817 48.385 28.3134 48.6552C20.3646 49.9678 12.7144 52.7951 8.82689 53.1903C7.5967 53.3149 6.39959 52.8798 5.35123 51.9327C3.68969 50.4314 2.6576 47.8547 2.6576 45.2081ZM11.2352 57.341L8.64068 54.3746C8.74021 54.371 8.83975 54.3638 8.93846 54.354C12.8464 53.9564 20.056 51.3119 27.5828 49.9534C20.7694 52.3753 13.076 56.3677 11.2352 57.341ZM35.571 59.3872C35.4771 59.3228 35.3681 59.2906 35.259 59.2906C35.1499 59.2906 35.0409 59.3228 34.947 59.3872L31.2627 61.9129V53.5711C32.3975 54.3644 33.7746 54.8335 35.2611 54.8335C36.7457 54.8335 38.1212 54.3658 39.2552 53.5746V61.9128L35.571 59.3872ZM35.2612 53.7304C32.0096 53.7304 29.3638 51.0849 29.3638 47.8328C29.3638 44.5809 32.0096 41.9354 35.2612 41.9354C38.5132 41.9354 41.159 44.5809 41.159 47.8328C41.159 51.0849 38.5132 53.7304 35.2612 53.7304ZM62.1501 54.3231L59.5103 57.3409C57.6513 56.3582 49.8231 52.2962 42.9567 49.8822C54.0258 51.6955 59.5799 54.6112 62.1501 54.3231ZM63.5558 52.8036C63.552 52.8053 63.5477 52.8048 63.5441 52.8066C62.6056 53.225 61.6624 53.342 60.7287 53.1845C63.4586 52.1068 65.4431 48.9442 65.4431 45.2252C65.4431 44.9205 65.1962 44.6736 64.8916 44.6736H55.3029C55.546 40.558 58.2309 37.3026 61.5038 37.3026C64.9432 37.3026 67.7416 40.8811 67.7416 45.2794C67.7415 48.7577 65.9887 51.7149 63.5558 52.8036Z" fill="#000B20"/>
</svg>
