<svg width="70" height="70" viewBox="0 0 70 70" fill="none" xmlns="http://www.w3.org/2000/svg">
<path d="M27.3203 40.3945V65.7995L34.9967 61.0303L42.6729 65.7995V40.3945H27.3203Z" fill="white"/>
<path d="M42.6718 40.3965V65.799L34.9941 61.0291L27.3164 65.799V40.3965H42.6718Z" fill="white"/>
<path d="M42.6718 40.3965V49.7244C40.0332 54.0354 37.09 54.9929 34.9941 54.9929C32.9026 54.9929 29.9551 54.0354 27.3164 49.7244V40.3965H42.6718Z" fill="#CAECFF"/>
<path d="M54.3309 24.1927C52.7172 26.6714 52.7172 29.8783 54.331 32.3569C56.3549 35.4653 57.0024 38.3014 55.8413 40.3102C54.6806 42.3186 51.903 43.1758 48.2005 42.9766C45.2454 42.8176 42.4666 44.4219 41.1267 47.0606C39.4474 50.3675 37.3157 52.3457 34.9967 52.3457C32.6749 52.3457 30.5422 50.367 28.8625 47.0604C27.5228 44.4231 24.7455 42.8194 21.7917 42.9777C18.088 43.1763 15.3093 42.319 14.1484 40.3102C12.9875 38.3014 13.6349 35.4653 15.6587 32.3569C17.2726 29.8782 17.2726 26.6712 15.6587 24.1924C13.6349 21.084 12.9874 18.2479 14.1484 16.2391C15.3068 14.2281 18.0859 13.3702 21.7885 13.5694C24.7426 13.7283 27.5209 12.1251 28.8608 9.48766C30.5418 6.17934 32.6746 4.2002 34.9967 4.2002C37.3157 4.2002 39.4474 6.17838 41.1267 9.48533C42.4667 12.124 45.2455 13.7283 48.2005 13.5693C51.903 13.3701 54.6806 14.2273 55.8413 16.2357C57.0024 18.2471 56.3549 21.0841 54.3309 24.1927Z" fill="#5FAFFF"/>
<path d="M54.3321 32.3571C56.3573 35.4635 57.006 38.3007 55.841 40.3084C55.0292 41.7205 53.4141 42.5632 51.2433 42.8677C51.1506 41.2791 50.4226 39.4524 49.1651 37.5242C47.5501 35.0443 47.5501 31.8365 49.1651 29.3611C51.1904 26.2503 51.839 23.4131 50.6742 21.401C49.5137 19.3933 46.7382 18.5373 43.0361 18.736C40.0798 18.8949 37.2999 17.2931 35.9629 14.6545C34.2819 11.3451 32.1507 9.36843 29.8296 9.36843C29.5031 9.36843 29.181 9.40821 28.8633 9.48313C30.5444 6.17823 32.6757 4.20142 34.9966 4.20142C37.3176 4.20142 39.4489 6.17823 41.13 9.48751C42.4669 12.1262 45.2468 13.7278 48.2031 13.569C51.9052 13.3705 54.6806 14.2265 55.8412 16.234C57.006 18.2461 56.3574 21.0833 54.3322 24.1941C52.717 26.6694 52.717 29.8773 54.3321 32.3571Z" fill="#3385FF"/>
<path d="M44.3324 28.2702C44.3324 33.4308 40.1523 37.6111 34.9917 37.6111C29.8364 37.6111 25.6562 33.431 25.6562 28.2702C25.6562 23.115 29.8364 18.9348 34.9917 18.9348C40.1521 18.9348 44.3324 23.115 44.3324 28.2702Z" fill="#CAECFF"/>
<path d="M44.3338 28.271C44.3338 32.0702 42.0658 35.3398 38.8094 36.7958C39.3345 35.631 39.6258 34.338 39.6258 32.9791C39.6258 27.8253 35.4472 23.6423 30.2846 23.6423C28.93 23.6423 27.6415 23.9335 26.4766 24.4541C27.9328 21.2021 31.1979 18.9341 34.9926 18.9341C40.1553 18.9342 44.3338 23.1173 44.3338 28.271Z" fill="#A2E5F4"/>
<path d="M68.0896 27.7214H61.0632C60.7586 27.7214 60.5117 27.9684 60.5117 28.273C60.5117 28.5776 60.7586 28.8245 61.0632 28.8245H68.0896C68.3942 28.8245 68.6412 28.5776 68.6412 28.273C68.6412 27.9684 68.3944 27.7214 68.0896 27.7214Z" fill="#000B20"/>
<path d="M64.8498 36.1025C64.9912 36.1025 65.132 36.0486 65.2397 35.9409C65.4552 35.7254 65.4552 35.3764 65.2397 35.1609L61.4533 31.3745C61.2378 31.159 60.8888 31.159 60.6733 31.3745C60.4579 31.59 60.4579 31.939 60.6733 32.1545L64.4597 35.9409C64.5676 36.0486 64.7084 36.1025 64.8498 36.1025Z" fill="#000B20"/>
<path d="M61.0634 25.333C61.2047 25.333 61.3456 25.2791 61.4533 25.1714L65.2397 21.3849C65.4552 21.1695 65.4552 20.8204 65.2397 20.605C65.0243 20.3895 64.6752 20.3895 64.4597 20.605L60.6733 24.3914C60.4579 24.6069 60.4579 24.9559 60.6733 25.1714C60.7811 25.2791 60.922 25.333 61.0634 25.333Z" fill="#000B20"/>
<path d="M1.35156 28.4664C1.35156 28.771 1.59848 29.018 1.90309 29.018H8.92893C9.23353 29.018 9.48045 28.771 9.48045 28.4664C9.48045 28.1618 9.23353 27.9149 8.92893 27.9149H1.90309C1.59848 27.9149 1.35156 28.1618 1.35156 28.4664Z" fill="#000B20"/>
<path d="M8.93184 25.5265C9.0732 25.5265 9.21402 25.4726 9.32176 25.3649C9.53723 25.1494 9.53723 24.8004 9.32176 24.5849L5.53533 20.7981C5.31986 20.5826 4.97082 20.5826 4.75535 20.7981C4.53988 21.0135 4.53988 21.3626 4.75535 21.5781L8.54178 25.3649C8.64965 25.4726 8.79047 25.5265 8.93184 25.5265Z" fill="#000B20"/>
<path d="M8.54178 31.5683L4.75535 35.3548C4.53988 35.5702 4.53988 35.9193 4.75535 36.1347C4.86309 36.2425 5.00404 36.2964 5.14527 36.2964C5.28664 36.2964 5.42746 36.2425 5.5352 36.1347L9.32162 32.3483C9.53709 32.1329 9.53709 31.7838 9.32162 31.5683C9.10629 31.3529 8.75725 31.3529 8.54178 31.5683Z" fill="#000B20"/>
<path d="M13.67 40.5861C14.9088 42.7307 17.7278 43.7524 21.8201 43.5283C23.6633 43.4319 25.4289 44.0744 26.766 45.2488V65.7997C26.766 66.0001 26.8746 66.1845 27.0496 66.2819C27.1331 66.3279 27.2254 66.3512 27.3176 66.3512C27.4189 66.3512 27.5196 66.3236 27.6084 66.268L34.9942 61.6798L42.379 66.268C42.5493 66.374 42.7629 66.3784 42.9384 66.2819C43.1134 66.1845 43.2219 66.0001 43.2219 65.7997V45.2511C44.5627 44.076 46.3331 43.4342 48.17 43.5273C52.2585 43.751 55.0787 42.7305 56.3181 40.586C57.5574 38.4414 57.03 35.4918 54.7927 32.0562C53.297 29.7591 53.297 26.7905 54.7927 24.4934C57.0296 21.0574 57.5574 18.1066 56.3181 15.9592C55.0788 13.8155 52.2589 12.7968 48.17 13.0183C45.4299 13.1597 42.8592 11.6808 41.6177 9.23542C39.7617 5.58052 37.4719 3.64868 34.996 3.64868C32.5178 3.64868 30.2263 5.58134 28.3682 9.23747C27.1259 11.682 24.5474 13.1579 21.8176 13.0187C17.7236 12.7972 14.9068 13.8171 13.6702 15.9631C12.4309 18.1068 12.9587 21.0568 15.1955 24.4932C16.6912 26.7904 16.6912 29.759 15.1955 32.0561C12.9585 35.4924 12.4307 38.442 13.67 40.5861ZM35.5457 60.7237V56.6055C35.5457 56.3008 35.2988 56.0539 34.9942 56.0539C34.6896 56.0539 34.4427 56.3008 34.4427 56.6055V60.724L27.8692 64.8078V46.4781C28.0534 46.7413 28.2217 47.0185 28.3699 47.3104C30.2267 50.9653 32.5178 52.8975 34.996 52.8975C37.4719 52.8975 39.7617 50.9653 41.6177 47.3104C41.7659 47.0185 41.9344 46.7413 42.1187 46.4781V64.8076L35.5457 60.7237ZM16.1202 23.8919C14.153 20.8705 13.6222 18.2505 14.6254 16.5145C15.6269 14.7775 18.1649 13.9277 21.7582 14.1204C24.9408 14.2902 27.9123 12.5704 29.3515 9.73759C30.985 6.52265 32.9896 4.752 34.996 4.752C37.0001 4.752 39.0025 6.52169 40.6344 9.7354C42.0736 12.5694 45.0468 14.2918 48.2295 14.1198C51.8267 13.9264 54.3596 14.7761 55.3627 16.5113C56.3658 18.2496 55.8349 20.8703 53.8679 23.8918C52.1349 26.554 52.1349 29.9952 53.8679 32.6577C55.835 35.6787 56.3663 38.2983 55.3632 40.0339C54.3601 41.77 51.8285 42.621 48.2297 42.4258C45.0474 42.2582 42.0733 43.9766 40.6345 46.8106C39.0026 50.0244 37.0003 51.794 34.9961 51.794C32.9897 51.794 30.9861 50.0244 29.3534 46.8102C27.9797 44.1059 25.2017 42.415 22.1918 42.415C22.0492 42.415 21.9053 42.4188 21.7613 42.4266C18.1659 42.6197 15.6282 41.7696 14.6251 40.0342C13.6224 38.2985 14.1533 35.679 16.1204 32.6575C17.8532 29.9953 17.8532 26.5541 16.1202 23.8919Z" fill="#000B20"/>
<path d="M34.9921 38.1627C40.447 38.1627 44.8848 33.7252 44.8848 28.2704C44.8848 22.8186 40.447 18.3833 34.9921 18.3833C29.5408 18.3833 25.1055 22.8186 25.1055 28.2704C25.1055 33.7253 29.5408 38.1627 34.9921 38.1627ZM34.9921 19.4865C39.8386 19.4865 43.7818 23.4271 43.7818 28.2705C43.7818 33.1169 39.8386 37.0596 34.9921 37.0596C30.1487 37.0596 26.2087 33.1168 26.2087 28.2705C26.2085 23.4271 30.1487 19.4865 34.9921 19.4865Z" fill="#000B20"/>
</svg>
